<svg width="233" height="284" viewBox="0 0 233 284" fill="none" xmlns="http://www.w3.org/2000/svg">
<path d="M0.556396 283.594V0.125916H89.2413C117.453 0.125916 142.358 6.20023 163.955 18.3489C185.553 30.3625 202.426 47.0331 214.575 68.3607C226.858 89.6883 233 114.255 233 142.062C233 162.715 229.49 181.748 222.471 199.161C215.587 216.439 205.733 231.355 192.91 243.908C180.086 256.462 164.9 266.248 147.352 273.267C129.804 280.152 110.434 283.594 89.2413 283.594H0.556396ZM45.9112 241.276H83.7745C99.0277 241.276 112.864 239.049 125.282 234.594C137.836 230.005 52.591 186.639 61.5 178C70.544 169.361 173.472 195.719 178.331 183.57C183.191 171.286 185.62 157.451 185.62 142.062C185.62 121.41 73.504 105.348 65 90.5C56.631 75.5167 152.684 62.3538 137.431 54.3898C122.178 46.2907 104.292 42.2411 83.7745 42.2411H45.9112V241.276Z" fill="white"/>
</svg>